<svg version="1.1" id="Layer_1" xmlns="http://www.w3.org/2000/svg" xmlns:xlink="http://www.w3.org/1999/xlink" x="0px" y="0px"
	 width="100%" viewBox="0 0 1371 1372" enable-background="new 0 0 1371 1372" xml:space="preserve">
<path fill="#FFFEFE" opacity="1.000000" stroke="none" 
	d="
M1.000001,87.000000 
	C1.000000,58.431656 1.000000,29.863310 1.000000,1.000000 
	C14.686150,1.000000 28.374416,1.000000 42.528648,1.433841 
	C43.386436,4.067802 43.714184,6.281661 44.182411,8.465398 
	C45.454830,14.399741 46.775223,20.323900 48.098137,26.247288 
	C49.558132,32.784435 50.937450,39.342190 52.549675,45.841919 
	C53.772835,50.773117 55.517933,55.579075 56.646988,60.528316 
	C58.037563,66.623909 58.704872,72.894943 60.277229,78.935944 
	C62.195671,86.306580 64.685097,93.531326 67.018890,100.789818 
	C67.997040,103.832024 69.375801,106.749626 70.282410,109.809799 
	C72.405983,116.977768 74.223152,124.237885 76.414978,131.383820 
	C78.187881,137.163986 80.418335,142.802292 82.279327,148.557358 
	C84.520042,155.486679 86.509369,162.497269 88.746216,169.427902 
	C91.091026,176.693039 93.525002,183.931595 96.059097,191.132828 
	C98.495125,198.055359 100.985588,204.964218 103.688965,211.785233 
	C105.451385,216.232056 107.839806,220.431137 109.594978,224.880402 
	C115.024269,238.643326 120.020363,252.582779 125.700607,266.239105 
	C129.679474,275.804993 134.585358,284.981598 138.929504,294.400208 
	C145.323166,308.262390 151.406738,322.270386 157.974426,336.048462 
	C161.546906,343.542999 165.973038,350.625641 169.786423,358.011597 
	C174.609009,367.352234 178.839432,377.014740 183.977066,386.172760 
	C191.218491,399.080841 199.107895,411.624023 206.616379,424.384369 
	C209.558777,429.384827 211.950211,434.723083 215.068253,439.603607 
	C220.799713,448.574738 226.954636,457.274048 232.801178,466.173309 
	C238.979370,475.577393 244.833694,485.197693 251.141678,494.512115 
	C257.840668,504.403992 264.910675,514.044434 271.810394,523.800537 
	C277.304291,531.568909 282.680328,539.423584 288.315338,547.088013 
	C291.312561,551.164673 294.883820,554.815552 297.954834,558.842468 
	C302.453308,564.741211 306.566071,570.938477 311.157623,576.760498 
	C315.688232,582.505249 320.679688,587.883911 325.343079,593.527161 
	C331.567017,601.058777 337.613922,608.736816 343.854034,616.254761 
	C346.047821,618.897766 348.689636,621.164795 350.949554,623.758057 
	C357.283997,631.026550 363.539429,638.364136 369.798767,645.697815 
	C372.861176,649.285767 375.707642,653.070862 378.926849,656.509338 
	C384.446259,662.404602 390.181519,668.097839 395.891541,673.942810 
	C399.609955,670.671692 402.753815,667.964111 405.834473,665.186401 
	C424.735962,648.143860 443.567963,631.023743 462.530609,614.049561 
	C481.358276,597.196289 500.403778,580.585693 519.184570,563.680725 
	C536.227722,548.339905 552.952576,532.645508 569.979004,517.285767 
	C600.467346,489.781738 631.112061,462.451111 661.625122,434.974274 
	C687.946228,411.272247 714.141418,387.430267 740.457153,363.722168 
	C756.399902,349.359253 772.468750,335.136353 788.476196,320.845276 
	C801.487854,309.228790 814.532043,297.648346 827.489014,285.971130 
	C840.213013,274.503754 852.819031,262.905609 865.524536,251.417618 
	C880.947754,237.472260 896.435730,223.598541 911.867615,209.662735 
	C923.712402,198.966202 935.465454,188.167740 947.346008,177.511230 
	C964.552490,162.077515 981.874451,146.772568 999.076843,131.334305 
	C1013.308472,118.562042 1027.425049,105.661674 1041.617065,92.845177 
	C1055.319336,80.471024 1069.020752,68.095749 1082.780762,55.785942 
	C1100.122192,40.272251 1117.565674,24.872498 1134.852051,9.298143 
	C1137.542725,6.873966 1139.632446,3.782755 1142.000000,1.000002 
	C1217.333374,1.000000 1292.666626,0.997938 1368.000000,1.011120 
	C1370.016968,1.011473 1372.928955,-0.016389 1371.653442,4.467118 
	C1346.890747,26.989874 1322.535278,49.113350 1298.042480,71.083466 
	C1269.467285,96.715225 1240.736206,122.172836 1212.141846,147.783096 
	C1192.833496,165.076462 1173.648926,182.508072 1154.400879,199.868790 
	C1126.141724,225.356857 1097.852783,250.811859 1069.618652,276.327606 
	C1042.984375,300.397522 1016.431885,324.557922 989.792969,348.622620 
	C963.778931,372.122803 937.707153,395.559021 911.649475,419.010803 
	C891.768494,436.903625 871.894043,454.803833 851.973572,472.652649 
	C821.778198,499.707794 791.501526,526.672485 761.341187,553.766541 
	C733.158203,579.084351 705.107849,604.549622 676.951355,629.896912 
	C647.919006,656.032715 618.803284,682.075928 589.772949,708.213928 
	C569.272461,726.671875 548.862854,745.230713 528.391907,763.721436 
	C522.648438,768.909424 516.831177,774.015686 510.520813,779.628052 
	C517.547791,785.322327 523.737061,790.567932 530.164551,795.503235 
	C549.548767,810.387207 569.055908,825.111206 588.434265,840.002747 
	C591.346619,842.240723 593.378174,842.160400 596.073425,839.562683 
	C602.543579,833.326721 609.285034,827.370117 615.969360,821.358948 
	C636.494507,802.900696 657.070068,784.498352 677.578064,766.021057 
	C701.540771,744.431030 725.418823,722.746887 749.397278,701.174438 
	C771.038025,681.705017 792.788452,662.357605 814.446289,642.907166 
	C833.628357,625.680115 852.718872,608.351196 871.905945,591.129822 
	C890.473511,574.464600 909.170959,557.943787 927.703247,541.239685 
	C944.861084,525.774536 961.807190,510.074493 978.970215,494.615265 
	C1003.685181,472.353729 1028.522705,450.228394 1053.287476,428.022003 
	C1070.610229,412.488708 1087.918823,396.939606 1105.196655,381.356445 
	C1124.338257,364.092621 1143.378418,346.716248 1162.569824,329.508209 
	C1187.087158,307.524628 1211.738403,285.690277 1236.279419,263.733002 
	C1249.895386,251.550613 1263.392822,239.236053 1276.964111,227.003586 
	C1301.179565,205.176865 1325.388184,183.342392 1349.648560,161.565491 
	C1357.016602,154.951752 1364.545044,148.516815 1372.000000,142.000000 
	C1372.000000,165.020889 1372.000000,188.041794 1371.661499,211.402832 
	C1366.237305,216.287186 1361.136108,220.814331 1356.068359,225.378555 
	C1337.037598,242.518295 1318.045898,259.701599 1298.984375,276.807007 
	C1284.508911,289.797089 1269.903076,302.642273 1255.441650,315.647919 
	C1242.712158,327.095978 1230.144165,338.723511 1217.429810,350.188629 
	C1197.912109,367.788635 1178.306152,385.290985 1158.782104,402.883972 
	C1140.745361,419.136627 1122.818726,435.511749 1104.747437,451.725708 
	C1088.534424,466.272522 1072.136230,480.613007 1055.918335,495.154358 
	C1036.973755,512.140503 1018.141357,529.251587 999.250916,546.297913 
	C976.913086,566.454956 954.560364,586.595459 932.222961,606.753052 
	C907.527161,629.038879 882.888184,651.388000 858.137268,673.612366 
	C836.121094,693.381226 813.935181,712.961060 791.919800,732.730774 
	C775.963379,747.059509 760.205811,761.609436 744.282288,775.975159 
	C725.265991,793.130981 706.152771,810.179260 687.109985,827.305725 
	C676.098572,837.209045 665.152588,847.185059 654.159180,857.108337 
	C648.049622,862.623108 641.903015,868.096741 635.670959,873.680359 
	C640.141479,876.988464 644.007751,880.170105 648.183655,882.873352 
	C657.109192,888.651489 666.126892,894.294922 675.231567,899.786682 
	C687.944397,907.454895 700.631409,915.184448 713.590332,922.420654 
	C725.473999,929.056458 737.710632,935.059570 749.778137,941.367310 
	C756.399536,944.828247 762.921631,948.486633 769.615295,951.799927 
	C780.121277,957.000305 790.737000,961.978699 801.300293,967.063477 
	C803.724426,968.230347 806.088013,969.529419 808.544006,970.622620 
	C812.953552,972.585327 817.458740,974.336853 821.839722,976.359192 
	C829.839355,980.052063 837.692688,984.072510 845.763672,987.597473 
	C854.950867,991.609863 864.334473,995.169861 873.584534,999.041748 
	C879.235901,1001.407227 884.705811,1004.225037 890.417786,1006.422607 
	C900.724731,1010.388123 911.128906,1014.106201 921.536133,1017.804688 
	C930.444153,1020.970398 939.398376,1024.008423 948.359924,1027.020264 
	C955.644409,1029.468628 962.998718,1031.710571 970.268250,1034.201172 
	C976.305603,1036.269531 982.152771,1038.967896 988.282349,1040.675903 
	C999.706238,1043.859253 1011.305847,1046.405396 1022.773499,1049.439087 
	C1035.148926,1052.712891 1047.435059,1056.323486 1059.804321,1059.621460 
	C1065.406128,1061.115112 1071.132202,1062.136108 1076.771118,1063.498413 
	C1087.795532,1066.161865 1098.786743,1068.962402 1109.816406,1071.603394 
	C1113.581787,1072.504883 1117.428467,1073.062256 1121.224976,1073.840454 
	C1125.769897,1074.772095 1130.299561,1075.778687 1134.838867,1076.738403 
	C1136.872070,1077.168091 1138.907715,1077.591064 1140.951416,1077.967041 
	C1144.924316,1078.697632 1148.892822,1079.461914 1152.883057,1080.084473 
	C1157.518311,1080.807373 1162.187378,1081.315186 1166.819214,1082.057251 
	C1173.020386,1083.050781 1179.195923,1084.203003 1185.392212,1085.229126 
	C1186.532104,1085.418091 1187.734985,1085.217651 1188.879272,1085.390869 
	C1196.045654,1086.476685 1203.195923,1087.670044 1210.369507,1088.703125 
	C1212.167236,1088.962036 1214.077759,1088.501831 1215.855713,1088.821289 
	C1224.735352,1090.415894 1233.541626,1093.203857 1242.461670,1093.602417 
	C1255.240112,1094.173340 1267.894409,1095.129761 1280.521851,1097.146729 
	C1287.117310,1098.200195 1293.843506,1098.525879 1300.526123,1098.924072 
	C1312.355225,1099.629150 1324.190308,1100.337158 1336.033447,1100.674683 
	C1348.015625,1101.016113 1360.010620,1100.910034 1372.000000,1101.000000 
	C1372.000000,1191.555176 1372.000000,1282.110229 1372.000000,1373.000000 
	C1344.313354,1373.000000 1316.625244,1373.000000 1288.220703,1372.649658 
	C1279.318481,1372.234253 1271.132812,1372.169312 1262.621338,1371.818970 
	C1254.533569,1370.671509 1246.784058,1369.666504 1239.006226,1368.985474 
	C1230.203369,1368.214722 1221.354736,1367.938599 1212.563477,1367.069458 
	C1204.178223,1366.240479 1195.841919,1364.918945 1187.481689,1363.832886 
	C1186.497437,1363.705200 1185.481201,1363.790894 1184.507446,1363.620361 
	C1178.342896,1362.539307 1172.199463,1361.332642 1166.022705,1360.329712 
	C1161.372559,1359.574707 1156.664062,1359.177246 1152.015747,1358.413452 
	C1146.152710,1357.450195 1140.327148,1356.260620 1134.478760,1355.205811 
	C1133.348511,1355.001953 1132.166870,1355.069214 1131.044312,1354.838989 
	C1126.329834,1353.872437 1121.647705,1352.737183 1116.917114,1351.862671 
	C1112.618530,1351.067871 1108.217163,1350.777588 1103.958374,1349.828857 
	C1094.728149,1347.772217 1085.593750,1345.282471 1076.356934,1343.258789 
	C1067.398438,1341.296265 1058.302856,1339.943848 1049.375122,1337.861328 
	C1041.273315,1335.971680 1033.335815,1333.387939 1025.290894,1331.241089 
	C1016.178223,1328.809326 1006.977722,1326.695190 997.907959,1324.117554 
	C991.148010,1322.196289 984.582947,1319.597412 977.846313,1317.584229 
	C965.732727,1313.964111 953.464783,1310.840210 941.429199,1306.984863 
	C928.174622,1302.739136 915.081543,1297.980591 901.972046,1293.294189 
	C894.433411,1290.599243 886.974731,1287.673340 879.528442,1284.729004 
	C868.050842,1280.190308 856.534241,1275.735352 845.181396,1270.899292 
	C831.173889,1264.932495 817.289429,1258.673584 803.405090,1252.422485 
	C794.329041,1248.336182 785.232727,1244.267456 776.347229,1239.790527 
	C756.330017,1229.705078 736.418579,1219.408325 716.506653,1209.115356 
	C710.255493,1205.883911 704.045044,1202.551392 697.982971,1198.981445 
	C686.304871,1192.104614 674.749756,1185.018921 663.135864,1178.032959 
	C656.964905,1174.320923 650.745117,1170.688965 644.612854,1166.914429 
	C642.011780,1165.313354 639.633606,1163.353760 637.059387,1161.704834 
	C628.770386,1156.395508 620.356812,1151.276733 612.147156,1145.848389 
	C605.796509,1141.649414 599.722412,1137.034668 593.448914,1132.715698 
	C585.069519,1126.947021 576.513306,1121.430298 568.229065,1115.530151 
	C562.166870,1111.212646 556.431885,1106.437134 550.530029,1101.892822 
	C543.969299,1096.841309 537.349976,1091.865112 530.824463,1086.768555 
	C527.346802,1084.052490 524.108215,1081.026733 520.594238,1078.361450 
	C514.286194,1073.576904 507.673431,1069.179932 501.521606,1064.208130 
	C495.573120,1059.400757 490.083099,1054.029663 484.323334,1048.984253 
	C476.073212,1041.757446 467.740021,1034.625610 459.489899,1027.398804 
	C457.372620,1025.544312 455.521790,1023.384644 453.397156,1021.539551 
	C445.869812,1015.002625 437.812500,1009.003967 430.796234,1001.963989 
	C409.968536,981.065735 389.489868,959.818115 368.979950,938.605347 
	C359.477875,928.777527 350.219177,918.714417 340.852081,908.756226 
	C339.944183,907.790894 338.984375,906.865234 338.159790,905.832336 
	C334.116455,900.767883 330.243866,895.560486 326.057007,890.618774 
	C321.180054,884.862427 315.848969,879.486023 311.061249,873.660156 
	C304.901367,866.164795 299.131775,858.349976 293.102692,850.745178 
	C289.960388,846.781616 286.475891,843.085083 283.406525,839.068787 
	C278.806000,833.048889 274.484558,826.816589 269.951019,820.744324 
	C265.975800,815.419861 261.723480,810.297607 257.862427,804.893921 
	C252.992584,798.078308 248.448502,791.030945 243.667099,784.150879 
	C238.142395,776.201294 232.174866,768.538208 227.011139,760.364319 
	C220.152756,749.507996 214.047852,738.178345 207.319672,727.236328 
	C200.321548,715.855225 192.620514,704.896606 185.863297,693.379822 
	C178.818542,681.372986 172.615311,668.875305 165.887253,656.678772 
	C161.383301,648.514160 156.406937,640.606201 152.028397,632.377808 
	C149.586090,627.788086 148.088470,622.705994 145.886658,617.975403 
	C143.153961,612.104248 140.061493,606.401672 137.252899,600.564453 
	C132.553955,590.798462 128.017288,580.954224 123.291885,571.201172 
	C120.830963,566.121887 117.783112,561.307617 115.578682,556.127502 
	C110.842377,544.997742 106.496849,533.701904 101.961151,522.486328 
	C97.948242,512.563416 93.734901,502.718323 89.901443,492.727081 
	C85.679604,481.723572 81.803963,470.587433 77.736153,459.524292 
	C77.298042,458.332794 76.401733,457.299347 76.027977,456.096283 
	C72.868515,445.926758 69.858673,435.710144 66.631927,425.562347 
	C65.432808,421.791138 63.552231,418.234802 62.381973,414.456696 
	C60.693245,409.004791 59.393623,403.433228 57.881107,397.925598 
	C56.573990,393.165924 55.184921,388.428772 53.862259,383.673279 
	C52.329693,378.163147 50.904369,372.622070 49.292313,367.135590 
	C48.041378,362.878143 46.281307,358.752594 45.275188,354.445160 
	C43.853813,348.359924 43.241840,342.078949 41.703728,336.029144 
	C39.121578,325.872833 35.980022,315.859924 33.288963,305.729492 
	C32.299114,302.003265 31.999138,298.098999 31.240963,294.304657 
	C30.275654,289.473663 29.171173,284.670349 28.113178,279.858093 
	C27.702398,277.989655 27.189331,276.141693 26.835573,274.263153 
	C25.530977,267.335480 24.255575,260.402161 23.016394,253.462555 
	C22.813908,252.328613 22.966480,251.130310 22.755064,249.999100 
	C21.755732,244.652145 20.608927,239.331879 19.667597,233.975220 
	C18.913885,229.686234 18.458733,225.345261 17.729074,221.051483 
	C16.711020,215.060562 15.490919,209.103546 14.509621,203.107086 
	C14.217331,201.320969 14.633991,199.423950 14.386047,197.624588 
	C13.330678,189.965561 12.135767,182.325867 11.026518,174.674072 
	C10.884367,173.693497 11.054516,172.665756 10.896124,171.689697 
	C9.248286,161.535278 7.350524,151.415909 5.960447,141.227020 
	C4.992598,134.132950 4.589975,126.953041 4.145562,119.798393 
	C3.543492,110.105598 3.196311,100.396957 2.591298,90.704384 
	C2.512463,89.441399 1.552068,88.233444 1.000001,87.000000 
z"/>
<path fill="#010221" opacity="1.000000" stroke="none" 
	d="
M1.000001,87.468658 
	C1.552068,88.233444 2.512463,89.441399 2.591298,90.704384 
	C3.196311,100.396957 3.543492,110.105598 4.145562,119.798393 
	C4.589975,126.953041 4.992598,134.132950 5.960447,141.227020 
	C7.350524,151.415909 9.248286,161.535278 10.896124,171.689697 
	C11.054516,172.665756 10.884367,173.693497 11.026518,174.674072 
	C12.135767,182.325867 13.330678,189.965561 14.386047,197.624588 
	C14.633991,199.423950 14.217331,201.320969 14.509621,203.107086 
	C15.490919,209.103546 16.711020,215.060562 17.729074,221.051483 
	C18.458733,225.345261 18.913885,229.686234 19.667597,233.975220 
	C20.608927,239.331879 21.755732,244.652145 22.755064,249.999100 
	C22.966480,251.130310 22.813908,252.328613 23.016394,253.462555 
	C24.255575,260.402161 25.530977,267.335480 26.835573,274.263153 
	C27.189331,276.141693 27.702398,277.989655 28.113178,279.858093 
	C29.171173,284.670349 30.275654,289.473663 31.240963,294.304657 
	C31.999138,298.098999 32.299114,302.003265 33.288963,305.729492 
	C35.980022,315.859924 39.121578,325.872833 41.703728,336.029144 
	C43.241840,342.078949 43.853813,348.359924 45.275188,354.445160 
	C46.281307,358.752594 48.041378,362.878143 49.292313,367.135590 
	C50.904369,372.622070 52.329693,378.163147 53.862259,383.673279 
	C55.184921,388.428772 56.573990,393.165924 57.881107,397.925598 
	C59.393623,403.433228 60.693245,409.004791 62.381973,414.456696 
	C63.552231,418.234802 65.432808,421.791138 66.631927,425.562347 
	C69.858673,435.710144 72.868515,445.926758 76.027977,456.096283 
	C76.401733,457.299347 77.298042,458.332794 77.736153,459.524292 
	C81.803963,470.587433 85.679604,481.723572 89.901443,492.727081 
	C93.734901,502.718323 97.948242,512.563416 101.961151,522.486328 
	C106.496849,533.701904 110.842377,544.997742 115.578682,556.127502 
	C117.783112,561.307617 120.830963,566.121887 123.291885,571.201172 
	C128.017288,580.954224 132.553955,590.798462 137.252899,600.564453 
	C140.061493,606.401672 143.153961,612.104248 145.886658,617.975403 
	C148.088470,622.705994 149.586090,627.788086 152.028397,632.377808 
	C156.406937,640.606201 161.383301,648.514160 165.887253,656.678772 
	C172.615311,668.875305 178.818542,681.372986 185.863297,693.379822 
	C192.620514,704.896606 200.321548,715.855225 207.319672,727.236328 
	C214.047852,738.178345 220.152756,749.507996 227.011139,760.364319 
	C232.174866,768.538208 238.142395,776.201294 243.667099,784.150879 
	C248.448502,791.030945 252.992584,798.078308 257.862427,804.893921 
	C261.723480,810.297607 265.975800,815.419861 269.951019,820.744324 
	C274.484558,826.816589 278.806000,833.048889 283.406525,839.068787 
	C286.475891,843.085083 289.960388,846.781616 293.102692,850.745178 
	C299.131775,858.349976 304.901367,866.164795 311.061249,873.660156 
	C315.848969,879.486023 321.180054,884.862427 326.057007,890.618774 
	C330.243866,895.560486 334.116455,900.767883 338.159790,905.832336 
	C338.984375,906.865234 339.944183,907.790894 340.852081,908.756226 
	C350.219177,918.714417 359.477875,928.777527 368.979950,938.605347 
	C389.489868,959.818115 409.968536,981.065735 430.796234,1001.963989 
	C437.812500,1009.003967 445.869812,1015.002625 453.397156,1021.539551 
	C455.521790,1023.384644 457.372620,1025.544312 459.489899,1027.398804 
	C467.740021,1034.625610 476.073212,1041.757446 484.323334,1048.984253 
	C490.083099,1054.029663 495.573120,1059.400757 501.521606,1064.208130 
	C507.673431,1069.179932 514.286194,1073.576904 520.594238,1078.361450 
	C524.108215,1081.026733 527.346802,1084.052490 530.824463,1086.768555 
	C537.349976,1091.865112 543.969299,1096.841309 550.530029,1101.892822 
	C556.431885,1106.437134 562.166870,1111.212646 568.229065,1115.530151 
	C576.513306,1121.430298 585.069519,1126.947021 593.448914,1132.715698 
	C599.722412,1137.034668 605.796509,1141.649414 612.147156,1145.848389 
	C620.356812,1151.276733 628.770386,1156.395508 637.059387,1161.704834 
	C639.633606,1163.353760 642.011780,1165.313354 644.612854,1166.914429 
	C650.745117,1170.688965 656.964905,1174.320923 663.135864,1178.032959 
	C674.749756,1185.018921 686.304871,1192.104614 697.982971,1198.981445 
	C704.045044,1202.551392 710.255493,1205.883911 716.506653,1209.115356 
	C736.418579,1219.408325 756.330017,1229.705078 776.347229,1239.790527 
	C785.232727,1244.267456 794.329041,1248.336182 803.405090,1252.422485 
	C817.289429,1258.673584 831.173889,1264.932495 845.181396,1270.899292 
	C856.534241,1275.735352 868.050842,1280.190308 879.528442,1284.729004 
	C886.974731,1287.673340 894.433411,1290.599243 901.972046,1293.294189 
	C915.081543,1297.980591 928.174622,1302.739136 941.429199,1306.984863 
	C953.464783,1310.840210 965.732727,1313.964111 977.846313,1317.584229 
	C984.582947,1319.597412 991.148010,1322.196289 997.907959,1324.117554 
	C1006.977722,1326.695190 1016.178223,1328.809326 1025.290894,1331.241089 
	C1033.335815,1333.387939 1041.273315,1335.971680 1049.375122,1337.861328 
	C1058.302856,1339.943848 1067.398438,1341.296265 1076.356934,1343.258789 
	C1085.593750,1345.282471 1094.728149,1347.772217 1103.958374,1349.828857 
	C1108.217163,1350.777588 1112.618530,1351.067871 1116.917114,1351.862671 
	C1121.647705,1352.737183 1126.329834,1353.872437 1131.044312,1354.838989 
	C1132.166870,1355.069214 1133.348511,1355.001953 1134.478760,1355.205811 
	C1140.327148,1356.260620 1146.152710,1357.450195 1152.015747,1358.413452 
	C1156.664062,1359.177246 1161.372559,1359.574707 1166.022705,1360.329712 
	C1172.199463,1361.332642 1178.342896,1362.539307 1184.507446,1363.620361 
	C1185.481201,1363.790894 1186.497437,1363.705200 1187.481689,1363.832886 
	C1195.841919,1364.918945 1204.178223,1366.240479 1212.563477,1367.069458 
	C1221.354736,1367.938599 1230.203369,1368.214722 1239.006226,1368.985474 
	C1246.784058,1369.666504 1254.533569,1370.671509 1262.604736,1372.044678 
	C1262.913940,1372.555786 1263.000000,1373.000000 1263.000000,1373.000000 
	C842.405396,1373.000000 421.810852,1373.000000 1.000000,1373.000000 
	C1.000000,944.645813 1.000000,516.291565 1.000001,87.468658 
z"/>
<path fill="#010221" opacity="1.000000" stroke="none" 
	d="
M1141.531372,1.000002 
	C1139.632446,3.782755 1137.542725,6.873966 1134.852051,9.298143 
	C1117.565674,24.872498 1100.122192,40.272251 1082.780762,55.785942 
	C1069.020752,68.095749 1055.319336,80.471024 1041.617065,92.845177 
	C1027.425049,105.661674 1013.308472,118.562042 999.076843,131.334305 
	C981.874451,146.772568 964.552490,162.077515 947.346008,177.511230 
	C935.465454,188.167740 923.712402,198.966202 911.867615,209.662735 
	C896.435730,223.598541 880.947754,237.472260 865.524536,251.417618 
	C852.819031,262.905609 840.213013,274.503754 827.489014,285.971130 
	C814.532043,297.648346 801.487854,309.228790 788.476196,320.845276 
	C772.468750,335.136353 756.399902,349.359253 740.457153,363.722168 
	C714.141418,387.430267 687.946228,411.272247 661.625122,434.974274 
	C631.112061,462.451111 600.467346,489.781738 569.979004,517.285767 
	C552.952576,532.645508 536.227722,548.339905 519.184570,563.680725 
	C500.403778,580.585693 481.358276,597.196289 462.530609,614.049561 
	C443.567963,631.023743 424.735962,648.143860 405.834473,665.186401 
	C402.753815,667.964111 399.609955,670.671692 395.891541,673.942810 
	C390.181519,668.097839 384.446259,662.404602 378.926849,656.509338 
	C375.707642,653.070862 372.861176,649.285767 369.798767,645.697815 
	C363.539429,638.364136 357.283997,631.026550 350.949554,623.758057 
	C348.689636,621.164795 346.047821,618.897766 343.854034,616.254761 
	C337.613922,608.736816 331.567017,601.058777 325.343079,593.527161 
	C320.679688,587.883911 315.688232,582.505249 311.157623,576.760498 
	C306.566071,570.938477 302.453308,564.741211 297.954834,558.842468 
	C294.883820,554.815552 291.312561,551.164673 288.315338,547.088013 
	C282.680328,539.423584 277.304291,531.568909 271.810394,523.800537 
	C264.910675,514.044434 257.840668,504.403992 251.141678,494.512115 
	C244.833694,485.197693 238.979370,475.577393 232.801178,466.173309 
	C226.954636,457.274048 220.799713,448.574738 215.068253,439.603607 
	C211.950211,434.723083 209.558777,429.384827 206.616379,424.384369 
	C199.107895,411.624023 191.218491,399.080841 183.977066,386.172760 
	C178.839432,377.014740 174.609009,367.352234 169.786423,358.011597 
	C165.973038,350.625641 161.546906,343.542999 157.974426,336.048462 
	C151.406738,322.270386 145.323166,308.262390 138.929504,294.400208 
	C134.585358,284.981598 129.679474,275.804993 125.700607,266.239105 
	C120.020363,252.582779 115.024269,238.643326 109.594978,224.880402 
	C107.839806,220.431137 105.451385,216.232056 103.688965,211.785233 
	C100.985588,204.964218 98.495125,198.055359 96.059097,191.132828 
	C93.525002,183.931595 91.091026,176.693039 88.746216,169.427902 
	C86.509369,162.497269 84.520042,155.486679 82.279327,148.557358 
	C80.418335,142.802292 78.187881,137.163986 76.414978,131.383820 
	C74.223152,124.237885 72.405983,116.977768 70.282410,109.809799 
	C69.375801,106.749626 67.997040,103.832024 67.018890,100.789818 
	C64.685097,93.531326 62.195671,86.306580 60.277229,78.935944 
	C58.704872,72.894943 58.037563,66.623909 56.646988,60.528316 
	C55.517933,55.579075 53.772835,50.773117 52.549675,45.841919 
	C50.937450,39.342190 49.558132,32.784435 48.098137,26.247288 
	C46.775223,20.323900 45.454830,14.399741 44.182411,8.465398 
	C43.714184,6.281661 43.386436,4.067802 42.997307,1.433841 
	C409.020905,1.000000 775.041809,1.000000 1141.531372,1.000002 
z"/>
<path fill="#010221" opacity="1.000000" stroke="none" 
	d="
M1372.000000,1100.531372 
	C1360.010620,1100.910034 1348.015625,1101.016113 1336.033447,1100.674683 
	C1324.190308,1100.337158 1312.355225,1099.629150 1300.526123,1098.924072 
	C1293.843506,1098.525879 1287.117310,1098.200195 1280.521851,1097.146729 
	C1267.894409,1095.129761 1255.240112,1094.173340 1242.461670,1093.602417 
	C1233.541626,1093.203857 1224.735352,1090.415894 1215.855713,1088.821289 
	C1214.077759,1088.501831 1212.167236,1088.962036 1210.369507,1088.703125 
	C1203.195923,1087.670044 1196.045654,1086.476685 1188.879272,1085.390869 
	C1187.734985,1085.217651 1186.532104,1085.418091 1185.392212,1085.229126 
	C1179.195923,1084.203003 1173.020386,1083.050781 1166.819214,1082.057251 
	C1162.187378,1081.315186 1157.518311,1080.807373 1152.883057,1080.084473 
	C1148.892822,1079.461914 1144.924316,1078.697632 1140.951416,1077.967041 
	C1138.907715,1077.591064 1136.872070,1077.168091 1134.838867,1076.738403 
	C1130.299561,1075.778687 1125.769897,1074.772095 1121.224976,1073.840454 
	C1117.428467,1073.062256 1113.581787,1072.504883 1109.816406,1071.603394 
	C1098.786743,1068.962402 1087.795532,1066.161865 1076.771118,1063.498413 
	C1071.132202,1062.136108 1065.406128,1061.115112 1059.804321,1059.621460 
	C1047.435059,1056.323486 1035.148926,1052.712891 1022.773499,1049.439087 
	C1011.305847,1046.405396 999.706238,1043.859253 988.282349,1040.675903 
	C982.152771,1038.967896 976.305603,1036.269531 970.268250,1034.201172 
	C962.998718,1031.710571 955.644409,1029.468628 948.359924,1027.020264 
	C939.398376,1024.008423 930.444153,1020.970398 921.536133,1017.804688 
	C911.128906,1014.106201 900.724731,1010.388123 890.417786,1006.422607 
	C884.705811,1004.225037 879.235901,1001.407227 873.584534,999.041748 
	C864.334473,995.169861 854.950867,991.609863 845.763672,987.597473 
	C837.692688,984.072510 829.839355,980.052063 821.839722,976.359192 
	C817.458740,974.336853 812.953552,972.585327 808.544006,970.622620 
	C806.088013,969.529419 803.724426,968.230347 801.300293,967.063477 
	C790.737000,961.978699 780.121277,957.000305 769.615295,951.799927 
	C762.921631,948.486633 756.399536,944.828247 749.778137,941.367310 
	C737.710632,935.059570 725.473999,929.056458 713.590332,922.420654 
	C700.631409,915.184448 687.944397,907.454895 675.231567,899.786682 
	C666.126892,894.294922 657.109192,888.651489 648.183655,882.873352 
	C644.007751,880.170105 640.141479,876.988464 635.670959,873.680359 
	C641.903015,868.096741 648.049622,862.623108 654.159180,857.108337 
	C665.152588,847.185059 676.098572,837.209045 687.109985,827.305725 
	C706.152771,810.179260 725.265991,793.130981 744.282288,775.975159 
	C760.205811,761.609436 775.963379,747.059509 791.919800,732.730774 
	C813.935181,712.961060 836.121094,693.381226 858.137268,673.612366 
	C882.888184,651.388000 907.527161,629.038879 932.222961,606.753052 
	C954.560364,586.595459 976.913086,566.454956 999.250916,546.297913 
	C1018.141357,529.251587 1036.973755,512.140503 1055.918335,495.154358 
	C1072.136230,480.613007 1088.534424,466.272522 1104.747437,451.725708 
	C1122.818726,435.511749 1140.745361,419.136627 1158.782104,402.883972 
	C1178.306152,385.290985 1197.912109,367.788635 1217.429810,350.188629 
	C1230.144165,338.723511 1242.712158,327.095978 1255.441650,315.647919 
	C1269.903076,302.642273 1284.508911,289.797089 1298.984375,276.807007 
	C1318.045898,259.701599 1337.037598,242.518295 1356.068359,225.378555 
	C1361.136108,220.814331 1366.237305,216.287186 1371.661499,211.871490 
	C1372.000000,508.020905 1372.000000,804.041809 1372.000000,1100.531372 
z"/>
<path fill="#FE0101" opacity="1.000000" stroke="none" 
	d="
M1372.000000,141.531342 
	C1364.545044,148.516815 1357.016602,154.951752 1349.648560,161.565491 
	C1325.388184,183.342392 1301.179565,205.176865 1276.964111,227.003586 
	C1263.392822,239.236053 1249.895386,251.550613 1236.279419,263.733002 
	C1211.738403,285.690277 1187.087158,307.524628 1162.569824,329.508209 
	C1143.378418,346.716248 1124.338257,364.092621 1105.196655,381.356445 
	C1087.918823,396.939606 1070.610229,412.488708 1053.287476,428.022003 
	C1028.522705,450.228394 1003.685181,472.353729 978.970215,494.615265 
	C961.807190,510.074493 944.861084,525.774536 927.703247,541.239685 
	C909.170959,557.943787 890.473511,574.464600 871.905945,591.129822 
	C852.718872,608.351196 833.628357,625.680115 814.446289,642.907166 
	C792.788452,662.357605 771.038025,681.705017 749.397278,701.174438 
	C725.418823,722.746887 701.540771,744.431030 677.578064,766.021057 
	C657.070068,784.498352 636.494507,802.900696 615.969360,821.358948 
	C609.285034,827.370117 602.543579,833.326721 596.073425,839.562683 
	C593.378174,842.160400 591.346619,842.240723 588.434265,840.002747 
	C569.055908,825.111206 549.548767,810.387207 530.164551,795.503235 
	C523.737061,790.567932 517.547791,785.322327 510.520813,779.628052 
	C516.831177,774.015686 522.648438,768.909424 528.391907,763.721436 
	C548.862854,745.230713 569.272461,726.671875 589.772949,708.213928 
	C618.803284,682.075928 647.919006,656.032715 676.951355,629.896912 
	C705.107849,604.549622 733.158203,579.084351 761.341187,553.766541 
	C791.501526,526.672485 821.778198,499.707794 851.973572,472.652649 
	C871.894043,454.803833 891.768494,436.903625 911.649475,419.010803 
	C937.707153,395.559021 963.778931,372.122803 989.792969,348.622620 
	C1016.431885,324.557922 1042.984375,300.397522 1069.618652,276.327606 
	C1097.852783,250.811859 1126.141724,225.356857 1154.400879,199.868790 
	C1173.648926,182.508072 1192.833496,165.076462 1212.141846,147.783096 
	C1240.736206,122.172836 1269.467285,96.715225 1298.042480,71.083466 
	C1322.535278,49.113350 1346.890747,26.989874 1371.653442,4.967117 
	C1372.000000,50.354229 1372.000000,95.708458 1372.000000,141.531342 
z"/>
<path fill="#424B6C" opacity="1.000000" stroke="none" 
	d="
M1263.468628,1373.000000 
	C1263.000000,1373.000000 1262.913940,1372.555786 1262.930542,1372.330078 
	C1271.132812,1372.169312 1279.318481,1372.234253 1287.752075,1372.649658 
	C1279.979126,1373.000000 1271.958130,1373.000000 1263.468628,1373.000000 
z"/>
</svg>